<mxfile host="app.diagrams.net" modified="2023-06-04T01:56:42.402Z" agent="Mozilla/5.0 (Windows NT 10.0; Win64; x64; rv:109.0) Gecko/20100101 Firefox/113.0" version="21.2.9" etag="SIc0P_kqcSeoeo9qu-Oy" type="github">
  <diagram name="Page-1" id="bYtUSTcAQVKGWqXSOV6C">
    <mxGraphModel>
      <root>
        <mxCell id="0" />
        <mxCell id="1" parent="0" />
      </root>
    </mxGraphModel>
  </diagram>
</mxfile>
